<svg width="20" height="20" viewBox="0 0 20 20" fill="none" xmlns="http://www.w3.org/2000/svg">
<path d="M15.4126 17.7819C15.3013 17.7819 15.1961 17.7571 15.0972 17.7076C14.9982 17.6582 14.9302 17.5839 14.8931 17.485L12.5366 13.6071C12.45 13.4586 12.4253 13.304 12.4624 13.1432C12.4995 12.9824 12.5923 12.8556 12.7407 12.7628C12.8891 12.67 13.0438 12.6453 13.2046 12.6886C13.3654 12.7319 13.4953 12.8216 13.5942 12.9576L15.9321 16.8356C16.0187 16.984 16.0434 17.1417 16.0063 17.3087C15.9692 17.4757 15.8764 17.6025 15.728 17.6891C15.6414 17.7509 15.5363 17.7819 15.4126 17.7819ZM10.2358 14.5162C9.18439 14.5162 8.20718 14.2503 7.30418 13.7184C6.4383 13.1989 5.74559 12.5061 5.22606 11.6403C4.69416 10.7373 4.4313 9.76314 4.43748 8.7179C4.44367 7.67265 4.71271 6.69853 5.24461 5.79553C5.76414 4.92965 6.45685 4.23694 7.32274 3.71741C8.22573 3.19788 9.19985 2.93811 10.2451 2.93811C11.2903 2.93811 12.2645 3.20406 13.1675 3.73596C14.0333 4.24312 14.7261 4.93583 15.2456 5.81409C15.7775 6.71708 16.0434 7.6912 16.0434 8.73645C16.0434 9.7817 15.7775 10.7496 15.2456 11.6403C14.7261 12.5185 14.0333 13.2112 13.1675 13.7184C12.2645 14.2503 11.2873 14.5162 10.2358 14.5162ZM10.2358 4.18127C9.41942 4.18127 8.66177 4.38538 7.96288 4.79358C7.26398 5.20178 6.71043 5.75533 6.30223 6.45422C5.89403 7.15312 5.68993 7.91386 5.68993 8.73645C5.68993 9.55904 5.89403 10.3167 6.30223 11.0094C6.71043 11.7021 7.26089 12.2557 7.9536 12.67C8.64631 13.0844 9.40396 13.2916 10.2265 13.2916C11.0491 13.2916 11.8099 13.0875 12.5088 12.6793C13.2077 12.2711 13.7612 11.7176 14.1694 11.0187C14.5776 10.3198 14.7817 9.55595 14.7817 8.72717C14.7817 7.8984 14.5776 7.13765 14.1694 6.44495C13.7612 5.75224 13.2108 5.20178 12.5181 4.79358C11.8253 4.38538 11.0646 4.18127 10.2358 4.18127Z" fill="#333333"/>
</svg>
