<svg width="25" height="25" viewBox="0 0 25 25" fill="none" xmlns="http://www.w3.org/2000/svg">
<path d="M22.4709 4.96045C22.4709 4.4292 22.342 3.94092 22.0842 3.49561C21.8264 3.05029 21.4749 2.69873 21.0295 2.44092C20.5842 2.18311 20.0959 2.0542 19.5647 2.0542H4.70532C4.17407 2.0542 3.68579 2.18311 3.24048 2.44092C2.79517 2.69873 2.4436 3.05029 2.18579 3.49561C1.92798 3.94092 1.79907 4.4292 1.79907 4.96045V19.8198C1.79907 20.3511 1.92798 20.8394 2.18579 21.2847C2.4436 21.73 2.79517 22.0815 3.24048 22.3394C3.68579 22.5972 4.17407 22.7261 4.70532 22.7261H19.5647C20.0959 22.7261 20.5842 22.5972 21.0295 22.3394C21.4749 22.0815 21.8264 21.73 22.0842 21.2847C22.342 20.8394 22.4709 20.3511 22.4709 19.8198V4.96045ZM18.9319 11.0776C17.6194 11.0933 16.3928 10.7104 15.2522 9.9292V15.1792C15.2522 15.9448 15.0881 16.6675 14.76 17.3472C14.4319 18.0269 13.9788 18.6011 13.4006 19.0698C12.8225 19.5386 12.1584 19.8589 11.4084 20.0308C10.4241 20.2651 9.47095 20.2104 8.54907 19.8667C7.70532 19.5386 6.99438 19.0112 6.41626 18.2847C5.83813 17.5581 5.49438 16.7534 5.38501 15.8706C5.27563 14.9878 5.37329 14.1558 5.67798 13.3745C5.98267 12.5933 6.45532 11.9331 7.09595 11.394C7.73657 10.855 8.48657 10.4995 9.34595 10.3276C9.59595 10.2808 9.88501 10.2573 10.2131 10.2573C10.5413 10.2573 10.8069 10.2808 11.01 10.3276V13.1401L10.9631 13.1167C10.8381 13.0854 10.7366 13.062 10.6584 13.0464C10.1428 12.9683 9.66235 13.0425 9.21704 13.269C8.77173 13.4956 8.44751 13.8433 8.24438 14.312C8.04126 14.7808 8.0061 15.2573 8.13892 15.7417C8.27173 16.2261 8.54126 16.6245 8.94751 16.937C9.63501 17.4839 10.3772 17.5698 11.1741 17.1948C11.9397 16.8667 12.3694 16.2573 12.4631 15.3667C12.4631 15.2886 12.4631 15.1714 12.4631 15.0151V4.89014C12.4631 4.76514 12.4749 4.69092 12.4983 4.66748C12.5217 4.64404 12.5959 4.63232 12.7209 4.63232H14.9709C15.0647 4.63232 15.1272 4.64404 15.1584 4.66748C15.1897 4.69092 15.2131 4.74951 15.2288 4.84326C15.26 5.40576 15.4163 5.93701 15.6975 6.43701C15.9788 6.93701 16.3538 7.35107 16.8225 7.6792C17.2913 8.00732 17.7991 8.20264 18.3459 8.26514C18.4553 8.29639 18.635 8.31982 18.885 8.33545H18.9319V11.0776Z" fill="#333333"/>
</svg>
