<svg width="19" height="20" viewBox="0 0 19 20" fill="none" xmlns="http://www.w3.org/2000/svg">
<path d="M9.44434 12.2897C8.57845 12.2897 7.77441 12.0732 7.03223 11.6403C6.29004 11.2073 5.70866 10.6259 5.28809 9.89612C4.84277 9.15393 4.62012 8.34371 4.62012 7.46545C4.62012 6.5872 4.83659 5.78007 5.26953 5.04407C5.70247 4.30806 6.28385 3.72359 7.01367 3.29065C7.75586 2.85771 8.56608 2.64124 9.44434 2.64124C10.3226 2.64124 11.1328 2.85771 11.875 3.29065C12.6048 3.72359 13.1831 4.30806 13.6099 5.04407C14.0366 5.78007 14.25 6.5872 14.25 7.46545C14.25 8.34371 14.0335 9.15084 13.6006 9.88684C13.1676 10.6228 12.5863 11.2073 11.8564 11.6403C11.1266 12.0732 10.3226 12.2897 9.44434 12.2897ZM9.44434 3.8844C8.80111 3.8844 8.20426 4.04521 7.65381 4.36682C7.10335 4.68844 6.67041 5.12138 6.35498 5.66565C6.03955 6.20992 5.88184 6.80676 5.88184 7.45618C5.88184 8.10559 6.03955 8.70553 6.35498 9.25598C6.67041 9.80644 7.10335 10.2394 7.65381 10.5548C8.20426 10.8702 8.8042 11.028 9.45361 11.028C10.103 11.028 10.6999 10.8702 11.2441 10.5548C11.7884 10.2394 12.2214 9.80644 12.543 9.25598C12.8646 8.70553 13.0223 8.10868 13.0161 7.46545C13.0099 6.82222 12.846 6.22538 12.5244 5.67493C12.2028 5.12447 11.7699 4.68844 11.2256 4.36682C10.6813 4.04521 10.0876 3.8844 9.44434 3.8844ZM16.3467 17.9674H15.1035C15.1035 17.2376 14.9303 16.514 14.584 15.7965C14.2871 15.1533 13.8789 14.5533 13.3594 13.9967C12.877 13.4895 12.3729 13.0813 11.8472 12.7721C11.3215 12.4629 10.8669 12.3082 10.4834 12.3082H8.36816C8.04655 12.3082 7.62288 12.4629 7.09717 12.7721C6.57145 13.0813 6.06738 13.4834 5.58496 13.9781C5.04069 14.5472 4.60775 15.1471 4.28613 15.778C3.92741 16.5078 3.74805 17.2376 3.74805 17.9674H2.50488C2.50488 17.0892 2.71517 16.2047 3.13574 15.3141C3.51921 14.5348 4.04492 13.805 4.71289 13.1246C5.31901 12.4938 5.95915 11.9928 6.6333 11.6217C7.30745 11.2506 7.88574 11.0651 8.36816 11.0651H10.4834C11.04 11.0527 11.6585 11.2321 12.3389 11.6031C13.0192 11.9742 13.6562 12.4752 14.25 13.1061C14.8809 13.7864 15.3818 14.5224 15.7529 15.3141C16.1488 16.1923 16.3467 17.0768 16.3467 17.9674Z" fill="#333333"/>
</svg>
