<svg width="25" height="25" viewBox="0 0 25 25" fill="none" xmlns="http://www.w3.org/2000/svg">
<path d="M17.6572 1.39795H7.67285C6.5791 1.39795 5.5752 1.66748 4.66113 2.20654C3.74707 2.74561 3.02051 3.47217 2.48145 4.38623C1.94238 5.30029 1.67285 6.3042 1.67285 7.39795V17.3823C1.67285 18.4761 1.94238 19.48 2.48145 20.394C3.02051 21.3081 3.74707 22.0347 4.66113 22.5737C5.5752 23.1128 6.5791 23.3823 7.67285 23.3823H17.6572C18.751 23.3823 19.7549 23.1128 20.6689 22.5737C21.583 22.0347 22.3096 21.3081 22.8486 20.394C23.3877 19.48 23.6572 18.4761 23.6572 17.3823V7.39795C23.6572 6.3042 23.3877 5.30029 22.8486 4.38623C22.3096 3.47217 21.583 2.74561 20.6689 2.20654C19.7549 1.66748 18.751 1.39795 17.6572 1.39795ZM21.665 17.3823C21.665 18.1011 21.4854 18.769 21.126 19.3862C20.7666 20.0034 20.2783 20.4917 19.6611 20.8511C19.0439 21.2104 18.376 21.3901 17.6572 21.3901H7.67285C6.9541 21.3901 6.28613 21.2104 5.66895 20.8511C5.05176 20.4917 4.56348 20.0034 4.2041 19.3862C3.84473 18.769 3.66504 18.1011 3.66504 17.3823V7.39795C3.66504 6.6792 3.84473 6.01123 4.2041 5.39404C4.56348 4.77686 5.05176 4.28857 5.66895 3.9292C6.28613 3.56982 6.9541 3.39014 7.67285 3.39014H17.6572C18.376 3.39014 19.0439 3.56982 19.6611 3.9292C20.2783 4.28857 20.7666 4.77686 21.126 5.39404C21.4854 6.01123 21.665 6.6792 21.665 7.39795V17.3823ZM13.4619 7.39795C12.9619 7.28857 12.4619 7.28857 11.9619 7.39795C11.0869 7.52295 10.3018 7.8667 9.60645 8.4292C8.91113 8.9917 8.39941 9.68701 8.07129 10.5151C7.74316 11.3433 7.6416 12.2026 7.7666 13.0933C7.86035 13.7495 8.0791 14.3628 8.42285 14.9331C8.7666 15.5034 9.21191 15.9917 9.75879 16.3979C10.7588 17.0542 11.7588 17.3823 12.7588 17.3823C13.1025 17.3823 13.3369 17.3511 13.4619 17.2886C14.1182 17.1948 14.7354 16.9761 15.3135 16.6323C15.8916 16.2886 16.376 15.8433 16.7666 15.2964C17.1572 14.7495 17.4307 14.1597 17.5869 13.5269C17.7432 12.894 17.7666 12.2495 17.6572 11.5933C17.5166 10.4839 17.0596 9.54248 16.2861 8.76904C15.5127 7.99561 14.5713 7.53857 13.4619 7.39795ZM15.1729 14.1011C14.9072 14.4136 14.6104 14.6714 14.2822 14.8745C13.9229 15.1089 13.5439 15.2495 13.1455 15.2964C12.7471 15.3433 12.3564 15.3159 11.9736 15.2144C11.5908 15.1128 11.2471 14.9331 10.9424 14.6753C10.6377 14.4175 10.3838 14.1245 10.1807 13.7964C9.94629 13.437 9.80566 13.0698 9.75879 12.6948C9.66504 12.1948 9.71973 11.7026 9.92285 11.2183C10.126 10.7339 10.4385 10.3237 10.8604 9.98779C11.2822 9.65186 11.751 9.45264 12.2666 9.39014H13.0635C13.7197 9.48389 14.2744 9.76123 14.7275 10.2222C15.1807 10.6831 15.4619 11.2417 15.5713 11.8979C15.665 12.2729 15.6729 12.6519 15.5947 13.0347C15.5166 13.4175 15.376 13.7729 15.1729 14.1011ZM18.876 6.1792C18.6729 5.9917 18.4385 5.89795 18.1729 5.89795C17.9072 5.89795 17.6729 5.99561 17.4697 6.19092C17.2666 6.38623 17.165 6.6167 17.165 6.88232C17.165 7.14795 17.2666 7.38232 17.4697 7.58545C17.6729 7.78857 17.9072 7.89014 18.1729 7.89014C18.3604 7.89014 18.4932 7.85889 18.5713 7.79639C18.6338 7.79639 18.7354 7.72607 18.876 7.58545C19.0635 7.38232 19.1572 7.14795 19.1572 6.88232C19.1572 6.69482 19.126 6.56201 19.0635 6.48389C19.0635 6.42139 19.001 6.31982 18.876 6.1792Z" fill="#333333"/>
</svg>
