<svg width="25" height="25" viewBox="0 0 25 25" fill="none" xmlns="http://www.w3.org/2000/svg">
<g clip-path="url(#clip0_1041_1671)">
<path d="M24.1609 7.58545C24.1296 7.4292 24.0984 7.28076 24.0672 7.14014C23.9891 6.78076 23.8875 6.45264 23.7626 6.15576C23.6064 5.73389 23.419 5.42139 23.2003 5.21826C22.8411 4.84326 22.4272 4.56982 21.9586 4.39795C21.6931 4.3042 21.3573 4.2417 20.9512 4.21045L20.7873 4.18701C19.3972 4.09326 17.5854 4.02295 15.352 3.97607L12.4001 3.95264L9.44818 3.97607C7.21472 4.02295 5.40297 4.09326 4.01292 4.18701L3.84892 4.21045C3.44284 4.2417 3.10704 4.3042 2.84152 4.39795C2.37297 4.56982 1.95908 4.84326 1.59985 5.21826C1.38119 5.42139 1.19377 5.73389 1.03758 6.15576C0.912633 6.45264 0.811112 6.78076 0.733019 7.14014L0.639308 7.58545L0.522169 8.8042C0.444076 9.77295 0.405029 10.6636 0.405029 11.4761V13.3042C0.405029 14.1011 0.444076 14.9917 0.522169 15.9761C0.569024 16.4604 0.608071 16.8589 0.639308 17.1714L0.733019 17.6401C0.811112 17.9995 0.912633 18.3276 1.03758 18.6245C1.19377 19.0308 1.38119 19.3433 1.59985 19.562C1.92784 19.9058 2.33392 20.1558 2.8181 20.312C3.08361 20.4058 3.45065 20.4839 3.91921 20.5464L4.2472 20.5933C5.04374 20.6714 6.64464 20.7339 9.0499 20.7808L12.4001 20.8276L15.352 20.8042C17.5854 20.7573 19.405 20.6792 20.8107 20.5698H20.9512C21.3573 20.5229 21.6931 20.4526 21.9586 20.3589C22.4272 20.2026 22.8411 19.937 23.2003 19.562C23.419 19.3433 23.6064 19.0308 23.7626 18.6245C23.8875 18.3276 23.9891 17.9995 24.0672 17.6401L24.1609 17.1714L24.278 15.9761C24.3561 15.0073 24.3951 14.1167 24.3951 13.3042V11.4761C24.3951 10.6636 24.3561 9.77295 24.278 8.8042C24.2311 8.31982 24.1921 7.91357 24.1609 7.58545ZM9.91673 15.5073V8.75732L16.4062 12.1323L9.91673 15.5073Z" fill="#333333"/>
</g>
<defs>
<clipPath id="clip0_1041_1671">
<rect width="24.26" height="24" fill="white" transform="matrix(1 0 0 -1 0.27002 24.3901)"/>
</clipPath>
</defs>
</svg>
