<svg width="25" height="25" viewBox="0 0 25 25" fill="none" xmlns="http://www.w3.org/2000/svg">
<path d="M21.0779 7.65576C20.8748 6.29638 20.2732 5.12451 19.2732 4.14013C18.3357 3.23388 17.1365 2.57373 15.6756 2.15967C14.2146 1.7456 12.6717 1.62451 11.0467 1.79638C9.73416 1.93701 8.49978 2.32763 7.34353 2.96826C6.14041 3.64013 5.17947 4.4917 4.46072 5.52295C3.67947 6.63232 3.2615 7.85107 3.20681 9.1792C3.15213 10.5073 3.35916 11.562 3.82791 12.3433C4.35916 13.2339 5.23416 13.8042 6.45291 14.0542C6.68728 13.6792 6.82009 13.3433 6.85134 13.0464C6.88259 12.7964 6.85134 12.5464 6.75759 12.2964C6.69509 12.1401 6.57009 11.9214 6.38259 11.6401C6.24197 11.4214 6.14041 11.2495 6.07791 11.1245C5.96853 10.9214 5.89822 10.7183 5.86697 10.5151C5.67947 9.48389 5.80447 8.4917 6.24197 7.53857C6.63259 6.64795 7.24197 5.88232 8.07009 5.2417C8.89822 4.60107 9.82791 4.14795 10.8592 3.88232C11.8904 3.6167 12.8982 3.58545 13.8826 3.78857C14.9607 4.00732 15.8826 4.47607 16.6482 5.19482C17.1951 5.71045 17.5779 6.41357 17.7967 7.3042C17.9998 8.14795 18.0388 9.0542 17.9138 10.0229C17.7888 10.9917 17.5154 11.8745 17.0935 12.6714C16.656 13.5151 16.117 14.1479 15.4763 14.5698C14.7576 15.0229 13.9685 15.1714 13.1092 15.0151C12.406 14.8901 11.9451 14.6011 11.7263 14.1479C11.5388 13.7729 11.5076 13.2573 11.6326 12.6011C11.7107 12.2104 11.8982 11.5854 12.1951 10.7261C12.4763 9.9292 12.656 9.35107 12.7342 8.9917C12.8592 8.38232 12.867 7.89014 12.7576 7.51514C12.617 7.06201 12.2888 6.7417 11.7732 6.5542C11.117 6.31982 10.5076 6.35107 9.94509 6.64795C9.44509 6.9292 9.05056 7.37451 8.7615 7.98389C8.47244 8.59326 8.32791 9.2456 8.32791 9.94092C8.32791 10.6362 8.49197 11.2339 8.82009 11.7339C8.67947 12.3589 8.42947 13.2886 8.07009 14.5229C7.74197 15.6792 7.50759 16.562 7.36697 17.1714C7.13259 18.1714 6.98416 19.1011 6.92166 19.9604C6.85916 21.0073 6.89822 22.0386 7.03884 23.0542C7.74197 22.6011 8.33572 21.9761 8.82009 21.1792C9.22634 20.5073 9.58572 19.6714 9.89822 18.6714C10.117 17.9683 10.3513 17.0229 10.6013 15.8354C10.7888 15.9292 11.0388 16.0776 11.3513 16.2808C11.8045 16.5776 12.1482 16.7808 12.3826 16.8901C12.7888 17.062 13.2263 17.1636 13.6951 17.1948C14.9451 17.2886 16.0935 17.0698 17.1404 16.5386C18.1092 16.0386 18.9295 15.312 19.6013 14.3589C20.2576 13.437 20.7146 12.3862 20.9724 11.2065C21.2302 10.0269 21.2654 8.84326 21.0779 7.65576Z" fill="#333333"/>
</svg>
