<svg width="19" height="20" viewBox="0 0 19 20" fill="none" xmlns="http://www.w3.org/2000/svg">
<path d="M9.4443 17.986H9.42575C9.10413 17.986 8.5846 17.7695 7.86715 17.3365C7.18681 16.9283 6.45081 16.3964 5.65914 15.7408C4.83037 15.0605 4.09437 14.374 3.45114 13.6813C2.60999 12.7783 1.94821 11.8877 1.46579 11.0094C0.847296 9.85901 0.57516 8.79521 0.649379 7.81799C0.698858 7.15002 0.831834 6.56555 1.0483 6.06458C1.26478 5.5636 1.5833 5.12138 2.00387 4.73792C2.88213 3.8844 3.96448 3.45764 5.25094 3.45764C6.43844 3.45764 7.42802 3.83492 8.21969 4.58948C8.67737 4.99768 9.08558 5.54814 9.4443 6.24084C9.80303 5.54814 10.2112 4.99768 10.6689 4.58948C11.4977 3.83492 12.4996 3.45764 13.6748 3.45764C14.9489 3.45764 16.025 3.8844 16.9033 4.73792C17.2991 5.12138 17.6053 5.5636 17.8217 6.06458C18.0382 6.56555 18.1712 7.15002 18.2207 7.81799C18.3444 9.5745 17.4476 11.4856 15.5302 13.5514C14.8375 14.2936 14.0397 15.0296 13.1367 15.7594C12.3326 16.4026 11.5781 16.9345 10.873 17.3551C10.1679 17.7757 9.6917 17.986 9.4443 17.986ZM5.23239 4.73792C4.27991 4.73792 3.48825 5.04716 2.85739 5.66565C2.56051 5.93779 2.33476 6.25631 2.18014 6.62122C2.02552 6.98612 1.92965 7.41597 1.89254 7.91077C1.83069 8.75191 2.12757 9.71057 2.78317 10.7867C3.32744 11.6897 4.09437 12.6237 5.08395 13.5885C5.91273 14.3925 6.77861 15.1162 7.68161 15.7594C8.49801 16.3284 9.07321 16.6562 9.40719 16.7428C9.74118 16.6191 10.3102 16.2789 11.1142 15.7223C12.042 15.0667 12.9078 14.3554 13.7119 13.5885C14.7262 12.636 15.5055 11.7145 16.0498 10.8239C16.7177 9.74768 17.0208 8.77047 16.959 7.89221C16.9095 7.38505 16.8105 6.95211 16.6621 6.59338C16.5136 6.23466 16.291 5.91304 15.9941 5.62854C15.3509 5.01005 14.5592 4.70081 13.6191 4.70081C12.7532 4.70081 12.0358 4.97294 11.4668 5.51721C10.8483 6.08622 10.3659 6.95211 10.0195 8.11487H8.832C8.43616 6.90263 7.94137 6.03674 7.34762 5.51721C6.80335 4.99768 6.09827 4.73792 5.23239 4.73792Z" fill="#333333"/>
</svg>
