<svg width="19" height="20" viewBox="0 0 19 20" fill="none" xmlns="http://www.w3.org/2000/svg">
<path d="M9.42578 18.4127C9.26497 18.4127 9.12272 18.3632 8.99902 18.2643L8.86914 18.1344C8.13932 17.4417 7.48372 16.7861 6.90234 16.1676C5.8138 14.9925 4.94792 13.8916 4.30469 12.8649C3.4388 11.4918 3.00586 10.3167 3.00586 9.33948C3.00586 8.16435 3.29655 7.06962 3.87793 6.0553C4.44694 5.06571 5.21387 4.28023 6.17871 3.69885C7.18066 3.1051 8.26302 2.80823 9.42578 2.80823C10.5885 2.80823 11.6709 3.1051 12.6729 3.69885C13.6501 4.28023 14.4232 5.05953 14.9922 6.03674C15.5859 7.05107 15.8828 8.15198 15.8828 9.33948C15.8828 10.3538 15.4189 11.5722 14.4912 12.9948C13.8109 14.0338 12.9079 15.1533 11.7822 16.3531C11.1885 16.9716 10.5576 17.5901 9.88965 18.2086L9.85254 18.2272C9.7041 18.3509 9.56185 18.4127 9.42578 18.4127ZM9.42578 4.05139C8.48568 4.05139 7.61361 4.2926 6.80957 4.77502C6.03027 5.24508 5.41178 5.88212 4.9541 6.68616C4.48405 7.50256 4.24902 8.387 4.24902 9.33948C4.24902 10.0322 4.56445 10.8981 5.19531 11.9371C5.71484 12.7783 6.41992 13.706 7.31055 14.7203C8.00326 15.4996 8.71452 16.2295 9.44434 16.9098C10.1742 16.2295 10.8854 15.4996 11.5781 14.7203C12.4688 13.706 13.1738 12.7783 13.6934 11.9371C14.3366 10.8981 14.6582 10.0322 14.6582 9.33948C14.6458 8.387 14.4046 7.50566 13.9346 6.69543C13.4645 5.88521 12.8398 5.24508 12.0605 4.77502C11.2441 4.2926 10.3659 4.05139 9.42578 4.05139ZM9.42578 12.5123C8.85677 12.5123 8.33415 12.3701 7.85791 12.0856C7.38167 11.8011 7.00439 11.4176 6.72607 10.9352C6.44775 10.4528 6.30859 9.92704 6.30859 9.35803C6.30859 8.78902 6.44775 8.26331 6.72607 7.78088C7.00439 7.29846 7.38167 6.915 7.85791 6.63049C8.33415 6.34599 8.85677 6.20374 9.42578 6.20374C9.99479 6.20374 10.5174 6.34599 10.9937 6.63049C11.4699 6.915 11.8472 7.29846 12.1255 7.78088C12.4038 8.26331 12.543 8.78902 12.543 9.35803C12.543 9.92704 12.4038 10.4528 12.1255 10.9352C11.8472 11.4176 11.4699 11.8011 10.9937 12.0856C10.5174 12.3701 9.99479 12.5123 9.42578 12.5123ZM9.42578 7.42834C9.0918 7.42834 8.77946 7.51493 8.48877 7.68811C8.19808 7.86129 7.96924 8.09322 7.80225 8.38391C7.63525 8.6746 7.55176 8.99312 7.55176 9.33948C7.55176 9.68583 7.63525 10.0044 7.80225 10.295C7.96924 10.5857 8.19808 10.8146 8.48877 10.9816C8.77946 11.1486 9.0918 11.2321 9.42578 11.2321C9.75977 11.2321 10.0721 11.1486 10.3628 10.9816C10.6535 10.8146 10.8823 10.5857 11.0493 10.295C11.2163 10.0044 11.2998 9.68583 11.2998 9.33948C11.2998 8.99312 11.2163 8.6746 11.0493 8.38391C10.8823 8.09322 10.6566 7.86129 10.3721 7.68811C10.0876 7.51493 9.77214 7.42834 9.42578 7.42834Z" fill="#333333"/>
</svg>
