<svg width="19" height="20" viewBox="0 0 19 20" fill="none" xmlns="http://www.w3.org/2000/svg">
<path d="M15.8086 17.5035H3.45117C3.27799 17.5035 3.12956 17.4417 3.00586 17.318C2.88216 17.1943 2.82031 17.0397 2.82031 16.8541L3.30273 6.59338C3.3151 6.42021 3.38314 6.27486 3.50684 6.15735C3.63053 6.03984 3.77279 5.98108 3.93359 5.98108H15.3076C15.4684 5.98108 15.6076 6.03984 15.7251 6.15735C15.8426 6.27486 15.9076 6.42021 15.9199 6.59338L16.4023 16.8541C16.4023 17.0397 16.3467 17.1943 16.2354 17.318C16.124 17.4417 15.9818 17.5035 15.8086 17.5035ZM4.11914 16.2604H15.1592L14.7324 7.2428H4.52734L4.11914 16.2604ZM12.0977 6.68616C11.974 5.89449 11.7699 5.22034 11.4854 4.6637C11.238 4.14417 10.9411 3.75452 10.5947 3.49475C10.2855 3.23499 9.96696 3.1051 9.63916 3.1051C9.31136 3.1051 8.97738 3.24736 8.63721 3.53186C8.29704 3.81637 7.99707 4.2122 7.7373 4.71936C7.4528 5.28837 7.25488 5.94397 7.14355 6.68616L5.91895 6.51917C6.06738 5.50484 6.35189 4.62659 6.77246 3.8844C7.14355 3.21643 7.59505 2.70927 8.12695 2.36292C8.62174 2.02893 9.12272 1.86194 9.62988 1.86194C10.2236 1.86194 10.7772 2.05367 11.2905 2.43713C11.8039 2.8206 12.2368 3.36178 12.5894 4.06067C12.9419 4.75956 13.1862 5.57906 13.3223 6.51917L12.0977 6.68616Z" fill="#333333"/>
</svg>
