<svg width="25" height="25" viewBox="0 0 25 25" fill="none" xmlns="http://www.w3.org/2000/svg">
<path d="M21.4906 1.84326H3.95935C3.47498 1.84326 3.06091 2.01514 2.71716 2.35889C2.37341 2.70264 2.20154 3.1167 2.20154 3.60107V21.1792C2.20154 21.6636 2.37341 22.0776 2.71716 22.4214C3.06091 22.7651 3.47498 22.937 3.95935 22.937H21.4906C21.975 22.937 22.389 22.7651 22.7328 22.4214C23.0765 22.0776 23.2484 21.6636 23.2484 21.1792V3.60107C23.2484 3.1167 23.0765 2.70264 22.7328 2.35889C22.389 2.01514 21.975 1.84326 21.4906 1.84326ZM8.43591 19.2339H5.31873V9.88232H8.43591V19.2339ZM6.8656 8.75732C6.38123 8.75732 5.96716 8.58545 5.62341 8.2417C5.27966 7.89795 5.10779 7.47998 5.10779 6.98779C5.10779 6.49561 5.27966 6.07764 5.62341 5.73389C5.96716 5.39014 6.38513 5.21826 6.87732 5.21826C7.36951 5.21826 7.78748 5.39014 8.13123 5.73389C8.47498 6.07764 8.64685 6.49561 8.64685 6.98779C8.64685 7.47998 8.47498 7.89795 8.13123 8.2417C7.78748 8.58545 7.3656 8.75732 6.8656 8.75732ZM20.1547 19.2339H17.014L16.9437 13.6792V13.4448C16.9125 13.2729 16.8578 13.1089 16.7797 12.9526C16.6703 12.7339 16.5219 12.562 16.3344 12.437C16.0844 12.2964 15.7758 12.2261 15.4086 12.2261C15.0414 12.2261 14.7172 12.3042 14.4359 12.4604C14.2172 12.5854 14.0375 12.7495 13.8969 12.9526C13.7875 13.1089 13.7015 13.2808 13.639 13.4683L13.5687 13.6792V19.2339H10.4281V9.88232H13.4515V11.1714L13.4984 11.0542C13.5609 10.9448 13.639 10.8354 13.7328 10.7261C13.8734 10.5698 14.0453 10.4136 14.2484 10.2573C14.5609 10.0386 14.9828 9.88232 15.514 9.78857C15.9047 9.71045 16.264 9.67139 16.5922 9.67139L16.7797 9.69482C17.1234 9.69482 17.4125 9.72607 17.6469 9.78857C18.0375 9.88232 18.4594 10.0854 18.9125 10.3979C19.1781 10.5854 19.4125 10.8589 19.6156 11.2183C19.7562 11.4995 19.8734 11.8354 19.9672 12.2261C20.0453 12.4917 20.1 12.7651 20.1312 13.0464L20.1547 13.4214V19.2339Z" fill="#333333"/>
</svg>
