<svg width="324" height="26" viewBox="0 0 324 26" fill="none" xmlns="http://www.w3.org/2000/svg">
<g clip-path="url(#clip0_1041_1076)">
<g clip-path="url(#clip1_1041_1076)">
<g clip-path="url(#clip2_1041_1076)">
<path d="M216.32 23.3053H206.628V13.6811H215.411C216.858 13.6811 217.531 13.984 217.531 14.0176L217.767 14.1186V10.9217L217.531 11.0226C216.859 11.2498 216.154 11.3635 215.445 11.3592H206.595V3.41748H216.825C217.67 3.38009 218.508 3.57814 219.247 3.98955L219.517 4.1578V1.18303L203.229 1.11573L203.364 1.35129C203.759 2.17177 203.977 3.06602 204.003 3.97608V22.4843C203.988 23.439 203.771 24.3796 203.364 25.2437L203.229 25.4792H216.421L219.517 25.5465V22.4843L219.281 22.6189C218.361 23.0744 217.347 23.3095 216.32 23.3053ZM50.2846 22.1949V4.1578C50.2846 2.94636 50.3183 1.29745 50.3519 1.26379V0.927282H46.9195L46.9532 1.06189C46.9532 1.09555 47.6598 2.94636 47.6598 3.8886V22.2958C47.6598 23.6419 46.9532 25.1898 46.9532 25.2235L46.8522 25.459H51.0923L50.9913 25.2235C50.9913 25.1898 50.2846 23.6419 50.2846 22.1949ZM106.213 22.1949V4.1578C106.213 2.94636 106.247 1.29745 106.28 1.26379V0.927282H102.848L102.882 1.06189C102.882 1.09555 103.588 2.94636 103.588 3.8886V22.2958C103.588 23.6419 102.882 25.1898 102.882 25.2235L102.781 25.459H107.021L106.92 25.2235C106.92 25.1898 106.213 23.6419 106.213 22.1949ZM74.3116 22.2958C73.5282 22.8254 72.5984 23.0961 71.6532 23.0698H63.3077V1.09554H59.707L59.8752 1.36475C59.8752 1.36475 60.7165 2.81175 60.7165 4.1578V22.2622C60.7165 23.7765 59.8752 25.1898 59.8752 25.2235L59.707 25.4927H74.5808V22.0939L74.3116 22.2958ZM96.0503 22.2958C95.2669 22.8254 94.3371 23.0961 93.3919 23.0698H84.7098V1.09554H81.1092L81.2774 1.36475C81.2774 1.36475 82.1187 2.81175 82.1187 4.1578V22.2622C82.1187 23.7765 81.2774 25.1898 81.2774 25.2235L81.1092 25.4927H96.3195V22.0939L96.0503 22.2958ZM159.348 1.3311L159.483 1.09554H155.546L155.68 1.3311C156.01 1.96683 156.194 2.66808 156.219 3.38383V20.1085L143.633 1.16284L143.599 1.09554H139.662L140.672 2.54255V22.9688C140.664 23.744 140.504 24.5101 140.201 25.2235L140.066 25.459H143.869L143.734 25.2235C143.426 24.5696 143.254 23.8596 143.229 23.1371V5.50385L156.522 25.3917L156.555 25.459H159.449L158.81 24.2476C158.81 23.2381 158.843 4.46066 158.843 3.35017C158.862 2.64837 159.035 1.95921 159.348 1.3311ZM166.482 4.2924C167.148 3.81011 167.949 3.55095 168.771 3.55208H174.323V22.0939C174.329 23.1636 174.135 24.2251 173.751 25.2235L173.65 25.459H177.755L177.621 25.2235C177.165 24.2426 176.924 23.1756 176.914 22.0939V3.53862H182.164C184.015 3.53862 184.755 4.31259 184.755 4.31259V1.04843H166.449L166.482 4.27895V4.2924ZM271.71 4.2924C272.375 3.81011 273.176 3.55095 273.998 3.55208H279.55V22.0939C279.557 23.1636 279.363 24.2251 278.978 25.2235L278.877 25.459H282.983L282.848 25.2235C282.392 24.2426 282.151 23.1756 282.142 22.0939V3.53862H287.391C289.242 3.53862 289.982 4.31259 289.982 4.31259V1.04843H271.676L271.71 4.2924ZM12.3261 12.1668C13.1301 11.6827 13.7986 11.003 14.2693 10.1911C14.74 9.37911 14.9976 8.46124 15.0182 7.52292C15.0182 3.55208 11.5521 1.1965 8.1533 1.1965H0.51447L0.581777 1.43205C0.581777 1.4657 1.2548 3.55208 1.2548 4.49431V21.9593C1.2548 23.5409 0.245265 25.2908 0.245265 25.3244L0.110657 25.56H9.73491C14.3115 25.56 17.2728 22.7669 17.2728 18.4596C17.2728 15.3973 14.7826 12.8398 12.3261 12.1668ZM6.50439 11.5274L3.87959 11.4938V3.35017H8.1533C10.1724 3.35017 12.3597 5.03273 12.3597 7.48927C12.3597 10.2823 10.1387 11.5274 7.24472 11.5274H6.50439ZM7.54758 13.7484L8.55712 13.7147C12.6289 13.7147 14.547 16.1376 14.547 18.4596C14.547 21.791 12.8308 23.4063 9.26379 23.4063H3.87959V13.7821L7.54758 13.7484ZM132.764 23.0361C132.495 22.1612 125.226 2.13873 124.923 1.29745L124.889 1.1965H121.726L122.197 2.30698C121.76 3.51843 115.03 22.0939 114.76 22.7669C114.391 23.6544 113.928 24.5004 113.381 25.2908L113.212 25.56H116.914L116.88 25.3581C116.815 24.7863 116.896 24.2072 117.116 23.6755L119 18.2913L118.832 18.224H128.49L128.322 18.2913L130.274 23.8774C130.475 24.3433 130.545 24.8553 130.475 25.3581L130.442 25.56H134.413L134.11 25.2571C133.539 24.5979 133.084 23.847 132.764 23.0361ZM123.678 4.93179L127.716 16.4068H119.64L123.678 4.93179ZM244.183 23.0361C243.914 22.1612 236.645 1.83587 236.342 0.960935L236.309 0.859985H233.179L233.617 2.30698C233.213 3.45113 226.449 22.0939 226.18 22.7669C225.81 23.6544 225.347 24.5004 224.8 25.2908L224.632 25.56H228.333L228.3 25.3581C228.234 24.7863 228.315 24.2072 228.535 23.6755L230.42 18.2913L230.251 18.224H239.909L239.741 18.2913L241.693 23.8774C241.894 24.3433 241.964 24.8553 241.895 25.3581L241.861 25.56H245.832L245.529 25.2571C245.563 25.2571 244.553 24.2476 244.183 23.0361ZM239.102 16.4068H231.025L235.064 4.93179L239.102 16.4068ZM314.245 22.4304V3.72034C314.245 2.13873 314.884 1.36475 314.884 1.36475L315.086 1.09554H310.812L310.981 1.36475C311.426 2.14178 311.647 3.02705 311.62 3.92225V11.763H299.741V3.92225C299.721 3.02787 299.942 2.14459 300.381 1.36475L300.549 1.09554H296.309L296.477 1.36475C296.902 2.1741 297.121 3.07545 297.116 3.98955V22.0939C297.115 23.1694 296.898 24.2337 296.477 25.2235L296.342 25.459H300.482L300.347 25.2235C299.929 24.2447 299.711 23.1919 299.708 22.1276V14.0849H311.586V22.4641C311.586 24.4831 310.981 25.1562 310.947 25.1562L310.644 25.459H314.985L314.817 25.1898C314.423 24.324 314.228 23.3813 314.245 22.4304ZM39.6508 23.1034C38.4731 21.892 34.0647 15.7338 33.2571 14.6233C34.8051 13.9167 37.0597 11.662 37.0597 8.2296C37.0597 3.01366 33.0552 1.16284 29.6228 1.16284H23.0271L23.0944 1.39841C23.0944 1.43206 23.9021 3.65303 23.9021 4.46066V22.1949C23.8573 23.2727 23.5819 24.3284 23.0944 25.2908L22.9935 25.56H26.5269V15.2964L30.666 15.2627C30.9015 15.6329 36.6222 23.9784 38.0356 24.786C38.8588 25.2827 39.7999 25.55 40.7613 25.56C41.2431 25.5713 41.7227 25.4914 42.1747 25.3244L42.5448 25.1898L42.1747 25.0216C42.141 25.0552 41.0305 24.5168 39.6508 23.1034ZM26.5269 13.109V3.35017H29.5218C31.9111 3.35017 34.4349 4.89813 34.4349 8.26326C34.4349 11.1236 32.7523 13.0417 29.4545 13.109H26.5269ZM267.604 23.1034C266.426 21.892 262.018 15.7338 261.211 14.6233C262.758 13.9167 265.013 11.662 265.013 8.2296C265.013 3.01366 261.009 1.16284 257.576 1.16284H250.947L251.014 1.39841C251.014 1.43206 251.822 3.65303 251.822 4.46066V22.1949C251.777 23.2727 251.502 24.3284 251.014 25.2908L250.88 25.5263H254.413V15.2964L258.552 15.2627C258.788 15.6329 264.508 23.9784 265.922 24.786C266.745 25.2827 267.686 25.55 268.647 25.56C269.129 25.5713 269.609 25.4914 270.061 25.3244L270.431 25.1898L270.061 25.0216C270.094 25.0552 268.984 24.5168 267.604 23.1034ZM254.48 13.109V3.35017H257.475C259.864 3.35017 262.388 4.89813 262.388 8.26326C262.388 11.1236 260.706 13.0417 257.408 13.109H254.48Z" fill="black"/>
<path d="M320.847 1.48591C321.349 1.48591 321.84 1.63472 322.257 1.91352C322.674 2.19232 322.999 2.5886 323.191 3.05223C323.383 3.51586 323.434 4.02603 323.336 4.51822C323.238 5.0104 322.996 5.46251 322.641 5.81735C322.287 6.1722 321.834 6.41386 321.342 6.51176C320.85 6.60966 320.34 6.55942 319.876 6.36738C319.413 6.17534 319.016 5.85012 318.738 5.43286C318.459 5.0156 318.31 4.52504 318.31 4.02321C318.311 3.35055 318.578 2.70569 319.054 2.23005C319.53 1.75441 320.175 1.4868 320.847 1.48591ZM320.847 0.98114C320.248 0.98114 319.663 1.15877 319.165 1.49156C318.667 1.82434 318.278 2.29734 318.049 2.85075C317.82 3.40416 317.76 4.01312 317.877 4.60061C317.994 5.1881 318.282 5.72774 318.706 6.1513C319.129 6.57486 319.669 6.86331 320.256 6.98017C320.844 7.09703 321.453 7.03705 322.006 6.80782C322.56 6.57859 323.033 6.19042 323.365 5.69236C323.698 5.19431 323.876 4.60875 323.876 4.00975C323.876 3.20651 323.557 2.43618 322.989 1.8682C322.421 1.30023 321.65 0.98114 320.847 0.98114Z" fill="black"/>
<path d="M319.784 2.43825H320.982C321.133 2.43696 321.284 2.45162 321.433 2.48199C321.565 2.50994 321.69 2.56246 321.803 2.63679C321.911 2.70889 321.999 2.80884 322.055 2.92619C322.123 3.06652 322.155 3.22136 322.149 3.37711C322.156 3.57675 322.097 3.77308 321.981 3.93572C321.859 4.09294 321.68 4.19667 321.483 4.22513L322.271 5.53416H321.45L320.803 4.29579H320.467V5.53416H319.794L319.784 2.43825ZM320.457 3.72036H320.861H321.052C321.117 3.71477 321.18 3.70121 321.241 3.67998C321.295 3.65782 321.343 3.62185 321.379 3.57565C321.416 3.51766 321.435 3.44952 321.433 3.38048C321.436 3.3144 321.42 3.24885 321.386 3.19203C321.354 3.14638 321.311 3.10938 321.261 3.08435C321.207 3.05956 321.149 3.04257 321.089 3.03387C321.028 3.03066 320.966 3.03066 320.904 3.03387H320.457V3.72036Z" fill="black"/>
</g>
</g>
</g>
<defs>
<clipPath id="clip0_1041_1076">
<rect width="324" height="24.7" fill="white" transform="translate(0 0.859985)"/>
</clipPath>
<clipPath id="clip1_1041_1076">
<rect width="324" height="24.7" fill="white" transform="translate(0 0.859985)"/>
</clipPath>
<clipPath id="clip2_1041_1076">
<rect width="323.779" height="24.7" fill="white" transform="translate(0.110657 0.859985)"/>
</clipPath>
</defs>
</svg>
