<svg width="30" height="31" viewBox="0 0 30 31" fill="none" xmlns="http://www.w3.org/2000/svg">
<path d="M15 0.649902C23.2842 0.649902 30 6.8059 30 14.3998C30 21.9937 23.2842 28.15 15 28.15C12.4626 28.15 10.0725 27.5725 7.9773 26.5531C3.9783 28.645 1.6524 29.5048 0.9999 29.1316C0.3807 28.7776 1.0341 26.6008 2.9601 22.6015C1.1001 20.3119 0 17.4739 0 14.3998C0 6.8059 6.7158 0.649902 15 0.649902ZM16.3749 19.15H6.8751C6.64585 19.1542 6.42743 19.2483 6.26681 19.4119C6.10619 19.5755 6.0162 19.7957 6.0162 20.025C6.0162 20.2542 6.10619 20.4744 6.26681 20.638C6.42743 20.8016 6.64585 20.8957 6.8751 20.8999H16.3749C16.6041 20.8957 16.8226 20.8016 16.9832 20.638C17.1438 20.4744 17.2338 20.2542 17.2338 20.025C17.2338 19.7957 17.1438 19.5755 16.9832 19.4119C16.8226 19.2483 16.6041 19.1542 16.3749 19.15ZM20.1249 14.3998H6.8751C6.64301 14.3998 6.42042 14.492 6.25631 14.6561C6.0922 14.8202 6 15.0428 6 15.2749C6 15.507 6.0922 15.7296 6.25631 15.8937C6.42042 16.0578 6.64301 16.15 6.8751 16.15H20.1249C20.357 16.15 20.5796 16.0578 20.7437 15.8937C20.9078 15.7296 21 15.507 21 15.2749C21 15.0428 20.9078 14.8202 20.7437 14.6561C20.5796 14.492 20.357 14.3998 20.1249 14.3998ZM23.8749 9.6499H6.8751C6.64585 9.65415 6.42743 9.7482 6.26681 9.91182C6.10619 10.0754 6.0162 10.2956 6.0162 10.5249C6.0162 10.7541 6.10619 10.9743 6.26681 11.1379C6.42743 11.3015 6.64585 11.3956 6.8751 11.3998H23.8749C24.1041 11.3956 24.3226 11.3015 24.4832 11.1379C24.6438 10.9743 24.7338 10.7541 24.7338 10.5249C24.7338 10.2956 24.6438 10.0754 24.4832 9.91182C24.3226 9.7482 24.1041 9.65415 23.8749 9.6499Z" fill="white"/>
</svg>
